<svg xmlns="http://www.w3.org/2000/svg" viewBox="0 0 90 90">
  <defs>
    <linearGradient id="g" x1="44.25" y1="23.5" x2="80.78" y2="23.5" gradientUnits="userSpaceOnUse">
      <stop offset=".28" stop-color="#ff8f36"/>
      <stop offset=".48" stop-color="#fd8b30"/>
      <stop offset=".74" stop-color="#f9801f"/>
      <stop offset="1" stop-color="#f47108"/>
    </linearGradient>
  </defs>
  <rect width="90" height="90" rx="20" fill="#012262"/>
  <g transform="translate(1.5,12)">
    <path fill="#ffffff" d="M50.02,32.16c-2.11-2.05-3.42-4.92-3.42-8.09v-1.14c0-5.64-2.03-10.96-5.75-15.14-.3-.33-.61-.66-.93-.98C35.61,2.51,29.89.13,23.8.13S11.98,2.51,7.68,6.81C3.37,11.12,1,16.84,1,22.93v42.82h11.5V22.93c0-6.23,5.07-11.29,11.29-11.29s11.29,5.07,11.29,11.29v1.14c0,6.23-5.07,11.29-11.29,11.29h-6.59v11.5h6.59c6.09,0,11.81-2.37,16.12-6.68.32-.32.63-.65.93-.98.3.33.61.66.93.98.78.78,1.61,1.5,2.48,2.15,3.92,2.94,8.65,4.52,13.64,4.52h6.68v-11.5h-6.68c-3.06,0-5.83-1.22-7.87-3.2Z"/>
    <path fill="url(#g)" d="M74.1,6.81C69.8,2.51,64.07.13,57.98.13h-.1c-4.98,0-9.72,1.59-13.64,4.52,2.67,2.98,4.62,6.44,5.77,10.18,2.04-1.98,4.81-3.2,7.87-3.2h.1c6.23,0,11.29,5.07,11.29,11.29v23.93h11.5v-23.93c0-6.09-2.37-11.81-6.68-16.12Z"/>
  </g>
</svg>
