<?xml version="1.0" encoding="UTF-8"?>
<svg id="Layer_1" xmlns="http://www.w3.org/2000/svg" xmlns:xlink="http://www.w3.org/1999/xlink" version="1.1" viewBox="0 0 187 66">
  <!-- Generator: Adobe Illustrator 29.1.0, SVG Export Plug-In . SVG Version: 2.1.0 Build 142)  -->
  <defs>
    <style>
      .st0 {
        fill: url(#linear-gradient);
      }

      .st1 {
        fill: #fff;
      }
    </style>
    <linearGradient id="linear-gradient" x1="44.25" y1="23.5" x2="80.78" y2="23.5" gradientUnits="userSpaceOnUse">
      <stop offset=".28" stop-color="#ff8f36"/>
      <stop offset=".48" stop-color="#fd8b30"/>
      <stop offset=".74" stop-color="#f9801f"/>
      <stop offset="1" stop-color="#f47108"/>
    </linearGradient>
  </defs>
  <g>
    <path class="st1" d="M50.02,32.16c-2.11-2.05-3.42-4.92-3.42-8.09v-1.14c0-5.64-2.03-10.96-5.75-15.14-.3-.33-.61-.66-.93-.98C35.61,2.51,29.89.13,23.8.13S11.98,2.51,7.68,6.81C3.37,11.12,1,16.84,1,22.93v42.82h11.5V22.93c0-6.23,5.07-11.29,11.29-11.29s11.29,5.07,11.29,11.29v1.14c0,6.23-5.07,11.29-11.29,11.29h-6.59v11.5h6.59c6.09,0,11.81-2.37,16.12-6.68.32-.32.63-.65.93-.98.3.33.61.66.93.98.78.78,1.61,1.5,2.48,2.15,3.92,2.94,8.65,4.52,13.64,4.52h6.68v-11.5h-6.68c-3.06,0-5.83-1.22-7.87-3.2Z"/>
    <path class="st0" d="M74.1,6.81C69.8,2.51,64.07.13,57.98.13h-.1c-4.98,0-9.72,1.59-13.64,4.52,2.67,2.98,4.62,6.44,5.77,10.18,2.04-1.98,4.81-3.2,7.87-3.2h.1c6.23,0,11.29,5.07,11.29,11.29v23.93h11.5v-23.93c0-6.09-2.37-11.81-6.68-16.12Z"/>
  </g>
  <g>
    <path class="st1" d="M99.94,26.94c0,2.25-1.67,3.64-4.36,3.64h-2.31v2.95h-1.9v-10.24h4.21c2.69,0,4.36,1.37,4.36,3.64ZM98.02,26.94c0-1.29-.86-2.03-2.53-2.03h-2.22v4.07h2.22c1.67,0,2.53-.75,2.53-2.03Z"/>
    <path class="st1" d="M103.95,29.08v-5.78h1.9v5.7c0,2.11.95,3.01,2.6,3.01s2.59-.91,2.59-3.01v-5.7h1.87v5.78c0,2.98-1.68,4.61-4.47,4.61s-4.49-1.62-4.49-4.61Z"/>
    <path class="st1" d="M124.46,33.54l-2.09-3c-.13.01-.26.01-.39.01h-2.31v2.98h-1.9v-10.24h4.21c2.69,0,4.36,1.37,4.36,3.64,0,1.55-.79,2.69-2.18,3.23l2.35,3.36h-2.05ZM121.89,24.91h-2.22v4.08h2.22c1.67,0,2.53-.76,2.53-2.05s-.86-2.03-2.53-2.03Z"/>
    <path class="st1" d="M130.65,23.3h1.9v10.24h-1.9v-10.24Z"/>
    <path class="st1" d="M146.6,23.3v10.24h-1.56l-5.64-6.93v6.93h-1.89v-10.24h1.56l5.64,6.93v-6.93h1.89Z"/>
    <path class="st1" d="M153.62,24.91h-3.39v-1.61h8.69v1.61h-3.39v8.63h-1.9v-8.63Z"/>
    <path class="st1" d="M161.67,28.42c0-3.03,2.34-5.26,5.51-5.26s5.51,2.22,5.51,5.26-2.34,5.26-5.51,5.26-5.51-2.24-5.51-5.26ZM170.78,28.42c0-2.09-1.54-3.6-3.6-3.6s-3.6,1.51-3.6,3.6,1.54,3.6,3.6,3.6,3.6-1.51,3.6-3.6Z"/>
    <path class="st1" d="M186,23.3v10.24h-1.56l-5.64-6.93v6.93h-1.89v-10.24h1.56l5.64,6.93v-6.93h1.89Z"/>
    <path class="st1" d="M98.01,44.33h-5.12l-1.01,2.37h-1.96l4.61-10.24h1.87l4.62,10.24h-1.99l-1.02-2.37ZM97.38,42.84l-1.93-4.47-1.92,4.47h3.85Z"/>
    <path class="st1" d="M112.88,36.46v10.24h-1.56l-5.64-6.93v6.93h-1.89v-10.24h1.56l5.64,6.93v-6.93h1.89Z"/>
    <path class="st1" d="M123.73,44.33h-5.12l-1.01,2.37h-1.96l4.61-10.24h1.87l4.62,10.24h-1.99l-1.02-2.37ZM123.1,42.84l-1.93-4.47-1.92,4.47h3.85Z"/>
    <path class="st1" d="M129.51,36.46h1.9v8.63h5.35v1.61h-7.25v-10.24Z"/>
    <path class="st1" d="M143.08,43.09v3.61h-1.9v-3.58l-4.02-6.65h2.03l3,4.99,3.03-4.99h1.87l-4.01,6.62Z"/>
    <path class="st1" d="M151.72,38.07h-3.39v-1.61h8.69v1.61h-3.39v8.63h-1.9v-8.63Z"/>
    <path class="st1" d="M159.91,36.46h1.9v10.24h-1.9v-10.24Z"/>
    <path class="st1" d="M165.31,41.58c0-3.06,2.34-5.26,5.48-5.26,1.67,0,3.1.6,4.05,1.71l-1.23,1.16c-.75-.8-1.67-1.2-2.73-1.2-2.12,0-3.66,1.49-3.66,3.6s1.54,3.6,3.66,3.6c1.07,0,1.99-.39,2.73-1.21l1.23,1.17c-.95,1.11-2.38,1.71-4.07,1.71-3.13,0-5.47-2.21-5.47-5.26Z"/>
    <path class="st1" d="M177.21,45.62l.66-1.48c.82.66,2.12,1.13,3.38,1.13,1.59,0,2.27-.57,2.27-1.33,0-2.21-6.08-.76-6.08-4.56,0-1.65,1.32-3.06,4.12-3.06,1.23,0,2.52.32,3.41.91l-.6,1.48c-.92-.54-1.93-.8-2.82-.8-1.58,0-2.22.61-2.22,1.39,0,2.18,6.07.76,6.07,4.52,0,1.64-1.33,3.04-4.14,3.04-1.59,0-3.19-.5-4.04-1.23Z"/>
  </g>
</svg>